solid OpenSCAD_Model
  facet normal 0 0 1
    outer loop
      vertex 0 7.07107 7.07107
      vertex -0 -7.07107 7.07107
      vertex 7.07107 0 7.07107
    endloop
  endfacet
  facet normal 0 -0 1
    outer loop
      vertex -0 -7.07107 7.07107
      vertex 0 7.07107 7.07107
      vertex -7.07107 -0 7.07107
    endloop
  endfacet
  facet normal 0.707107 0.707107 -0
    outer loop
      vertex 7.07107 0 -7.07107
      vertex 0 7.07107 -7.07107
      vertex 7.07107 0 7.07107
    endloop
  endfacet
  facet normal 0.707107 0.707107 -0
    outer loop
      vertex 0 7.07107 -7.07107
      vertex 0 7.07107 7.07107
      vertex 7.07107 0 7.07107
    endloop
  endfacet
  facet normal -0.707107 0.707107 0
    outer loop
      vertex 0 7.07107 -7.07107
      vertex -7.07107 -0 -7.07107
      vertex 0 7.07107 7.07107
    endloop
  endfacet
  facet normal -0.707107 0.707107 0
    outer loop
      vertex -7.07107 -0 -7.07107
      vertex -7.07107 -0 7.07107
      vertex 0 7.07107 7.07107
    endloop
  endfacet
  facet normal -0.707107 -0.707107 0
    outer loop
      vertex -7.07107 -0 -7.07107
      vertex -0 -7.07107 -7.07107
      vertex -7.07107 -0 7.07107
    endloop
  endfacet
  facet normal -0.707107 -0.707107 0
    outer loop
      vertex -0 -7.07107 -7.07107
      vertex -0 -7.07107 7.07107
      vertex -7.07107 -0 7.07107
    endloop
  endfacet
  facet normal 0.707107 -0.707107 0
    outer loop
      vertex -0 -7.07107 -7.07107
      vertex 7.07107 0 -7.07107
      vertex -0 -7.07107 7.07107
    endloop
  endfacet
  facet normal 0.707107 -0.707107 0
    outer loop
      vertex 7.07107 0 -7.07107
      vertex 7.07107 0 7.07107
      vertex -0 -7.07107 7.07107
    endloop
  endfacet
  facet normal 0 0 -1
    outer loop
      vertex -0 -7.07107 -7.07107
      vertex 0 7.07107 -7.07107
      vertex 7.07107 0 -7.07107
    endloop
  endfacet
  facet normal 0 0 -1
    outer loop
      vertex 0 7.07107 -7.07107
      vertex -0 -7.07107 -7.07107
      vertex -7.07107 -0 -7.07107
    endloop
  endfacet
endsolid OpenSCAD_Model
