solid OpenSCAD_Model
  color 200 50 50
  facet normal 0 0 1
    outer loop
      vertex 2.5 4.33013 8.66025
      vertex 2.5 -4.33013 8.66025
      vertex 5 0 8.66025
    endloop
  endfacet
  facet normal -0 0 1
    outer loop
      vertex -2.5 4.33013 8.66025
      vertex 2.5 -4.33013 8.66025
      vertex 2.5 4.33013 8.66025
    endloop
  endfacet
  facet normal 0 0 1
    outer loop
      vertex -2.5 4.33013 8.66025
      vertex -2.5 -4.33013 8.66025
      vertex 2.5 -4.33013 8.66025
    endloop
  endfacet
  facet normal 0 -0 1
    outer loop
      vertex -2.5 -4.33013 8.66025
      vertex -2.5 4.33013 8.66025
      vertex -5 -0 8.66025
    endloop
  endfacet
  facet normal 0.774597 0.447214 0.447214
    outer loop
      vertex 10 0 0
      vertex 5 8.66025 0
      vertex 5 0 8.66025
    endloop
  endfacet
  facet normal 0.774597 0.447213 0.447213
    outer loop
      vertex 5 8.66025 0
      vertex 2.5 4.33013 8.66025
      vertex 5 0 8.66025
    endloop
  endfacet
  facet normal 0 0.894427 0.447213
    outer loop
      vertex 5 8.66025 0
      vertex -5 8.66025 0
      vertex 2.5 4.33013 8.66025
    endloop
  endfacet
  facet normal 0 0.894427 0.447213
    outer loop
      vertex -5 8.66025 0
      vertex -2.5 4.33013 8.66025
      vertex 2.5 4.33013 8.66025
    endloop
  endfacet
  facet normal -0.774597 0.447214 0.447214
    outer loop
      vertex -5 8.66025 0
      vertex -10 -0 0
      vertex -2.5 4.33013 8.66025
    endloop
  endfacet
  facet normal -0.774597 0.447213 0.447214
    outer loop
      vertex -10 -0 0
      vertex -5 -0 8.66025
      vertex -2.5 4.33013 8.66025
    endloop
  endfacet
  facet normal -0.774597 -0.447214 0.447214
    outer loop
      vertex -10 -0 0
      vertex -5 -8.66025 0
      vertex -5 -0 8.66025
    endloop
  endfacet
  facet normal -0.774597 -0.447213 0.447213
    outer loop
      vertex -5 -8.66025 0
      vertex -2.5 -4.33013 8.66025
      vertex -5 -0 8.66025
    endloop
  endfacet
  facet normal 0 -0.894427 0.447213
    outer loop
      vertex -5 -8.66025 0
      vertex 5 -8.66025 0
      vertex -2.5 -4.33013 8.66025
    endloop
  endfacet
  facet normal 0 -0.894427 0.447213
    outer loop
      vertex 5 -8.66025 0
      vertex 2.5 -4.33013 8.66025
      vertex -2.5 -4.33013 8.66025
    endloop
  endfacet
  facet normal 0.774597 -0.447214 0.447214
    outer loop
      vertex 5 -8.66025 0
      vertex 10 0 0
      vertex 2.5 -4.33013 8.66025
    endloop
  endfacet
  facet normal 0.774597 -0.447213 0.447214
    outer loop
      vertex 10 0 0
      vertex 5 0 8.66025
      vertex 2.5 -4.33013 8.66025
    endloop
  endfacet
  facet normal 0.774597 0.447213 -0.447214
    outer loop
      vertex 5 0 -8.66025
      vertex 2.5 4.33013 -8.66025
      vertex 10 0 0
    endloop
  endfacet
  facet normal 0.774597 0.447214 -0.447214
    outer loop
      vertex 2.5 4.33013 -8.66025
      vertex 5 8.66025 0
      vertex 10 0 0
    endloop
  endfacet
  facet normal 0 0.894427 -0.447213
    outer loop
      vertex 2.5 4.33013 -8.66025
      vertex -2.5 4.33013 -8.66025
      vertex 5 8.66025 0
    endloop
  endfacet
  facet normal 0 0.894427 -0.447213
    outer loop
      vertex -2.5 4.33013 -8.66025
      vertex -5 8.66025 0
      vertex 5 8.66025 0
    endloop
  endfacet
  facet normal -0.774597 0.447213 -0.447213
    outer loop
      vertex -2.5 4.33013 -8.66025
      vertex -5 -0 -8.66025
      vertex -5 8.66025 0
    endloop
  endfacet
  facet normal -0.774597 0.447214 -0.447214
    outer loop
      vertex -5 -0 -8.66025
      vertex -10 -0 0
      vertex -5 8.66025 0
    endloop
  endfacet
  facet normal -0.774597 -0.447213 -0.447214
    outer loop
      vertex -5 -0 -8.66025
      vertex -2.5 -4.33013 -8.66025
      vertex -10 -0 0
    endloop
  endfacet
  facet normal -0.774597 -0.447214 -0.447214
    outer loop
      vertex -2.5 -4.33013 -8.66025
      vertex -5 -8.66025 0
      vertex -10 -0 0
    endloop
  endfacet
  facet normal 0 -0.894427 -0.447213
    outer loop
      vertex -2.5 -4.33013 -8.66025
      vertex 2.5 -4.33013 -8.66025
      vertex -5 -8.66025 0
    endloop
  endfacet
  facet normal 0 -0.894427 -0.447213
    outer loop
      vertex 2.5 -4.33013 -8.66025
      vertex 5 -8.66025 0
      vertex -5 -8.66025 0
    endloop
  endfacet
  facet normal 0.774597 -0.447213 -0.447213
    outer loop
      vertex 2.5 -4.33013 -8.66025
      vertex 5 0 -8.66025
      vertex 5 -8.66025 0
    endloop
  endfacet
  facet normal 0.774597 -0.447214 -0.447214
    outer loop
      vertex 5 0 -8.66025
      vertex 10 0 0
      vertex 5 -8.66025 0
    endloop
  endfacet
  facet normal 0 0 -1
    outer loop
      vertex 2.5 -4.33013 -8.66025
      vertex 2.5 4.33013 -8.66025
      vertex 5 0 -8.66025
    endloop
  endfacet
  facet normal 0 0 -1
    outer loop
      vertex -2.5 -4.33013 -8.66025
      vertex 2.5 4.33013 -8.66025
      vertex 2.5 -4.33013 -8.66025
    endloop
  endfacet
  facet normal 0 0 -1
    outer loop
      vertex -2.5 -4.33013 -8.66025
      vertex -2.5 4.33013 -8.66025
      vertex 2.5 4.33013 -8.66025
    endloop
  endfacet
  facet normal 0 -0 -1
    outer loop
      vertex -2.5 4.33013 -8.66025
      vertex -2.5 -4.33013 -8.66025
      vertex -5 -0 -8.66025
    endloop
  endfacet
endsolid OpenSCAD_Model
